<svg width="120" height="120" viewBox="0 0 120 120" fill="none" xmlns="http://www.w3.org/2000/svg">
<circle cx="60" cy="60" r="60" fill="white"/>
<path d="M75.8867 55.8853V43.3867C75.8867 34.3511 68.5356 27 59.5 27C50.4644 27 43.1133 34.3511 43.1133 43.3867V55.8853C40.7733 56.3363 39 58.3984 39 60.8679V72.1792C39 76.8871 40.6357 81.4854 43.6059 85.1273C43.9417 85.539 44.5478 85.6006 44.9595 85.2648C45.3713 84.9289 45.4328 84.3228 45.097 83.9112C42.4061 80.6118 40.9242 76.4454 40.9242 72.1794V60.868C40.9242 59.1305 42.3378 57.717 44.0754 57.717H74.9245C76.662 57.717 78.0757 59.1306 78.0757 60.868V72.1794C78.0758 82.422 69.7428 90.755 59.5 90.755C55.3259 90.755 51.3831 89.403 48.098 86.8451C47.6786 86.5186 47.0742 86.5939 46.7478 87.0131C46.4214 87.4323 46.4967 88.0369 46.9159 88.3633C50.5421 91.1868 54.8936 92.6792 59.5 92.6792C70.8038 92.6792 80 83.4831 80 72.1792V60.8679C80 58.3984 78.2267 56.3362 75.8867 55.8853ZM59.5 28.9242C67.4746 28.9242 73.9625 35.4121 73.9625 43.3867V55.7926H69.7168V53.6699C69.7168 53.1385 69.2861 52.7078 68.7547 52.7078C68.2234 52.7078 67.7926 53.1385 67.7926 53.6699V55.7926H51.2074V43.3868C51.2074 38.8142 54.9275 35.0941 59.5 35.0941C64.0725 35.0941 67.7926 38.8142 67.7926 43.3868V49.5567C67.7926 50.088 68.2234 50.5188 68.7547 50.5188C69.2861 50.5188 69.7168 50.088 69.7168 49.5567V43.3868C69.7168 37.7532 65.1335 33.1699 59.5 33.1699C53.8665 33.1699 49.2832 37.7532 49.2832 43.3868V55.7926H45.0375V43.3867C45.0375 35.4121 51.5254 28.9242 59.5 28.9242Z" fill="black" stroke="black" stroke-width="0.5"/>
<path d="M63.9262 73.2958C65.0903 72.0697 65.683 70.4627 65.5952 68.771C65.4304 65.5945 62.8081 63.0561 59.6255 62.992C56.5406 62.9304 53.8819 65.1877 53.4552 68.2442C53.4162 68.5241 53.3965 68.8101 53.3965 69.0943C53.3965 69.6257 53.8272 70.0564 54.3586 70.0564C54.8899 70.0564 55.3207 69.6257 55.3207 69.0943C55.3207 68.8987 55.3343 68.7022 55.3611 68.5102C55.6531 66.4183 57.4736 64.8721 59.5868 64.9156C61.7657 64.9595 63.5609 66.6968 63.6737 68.8705C63.7339 70.0301 63.328 71.1312 62.5309 71.9708C61.7333 72.811 60.6569 73.2736 59.5002 73.2736C58.9688 73.2736 58.5381 73.7043 58.5381 74.2357V79.3772C58.5381 79.9086 58.9688 80.3393 59.5002 80.3393C60.0315 80.3393 60.4623 79.9086 60.4623 79.3772V75.1234C61.7807 74.917 62.9862 74.286 63.9262 73.2958Z" fill="#7E317A" stroke="#7E317A" stroke-width="0.5"/>
<path d="M59.5102 82.5286H59.4999C58.9686 82.5286 58.543 82.9592 58.543 83.4907C58.543 84.022 58.9789 84.4528 59.5102 84.4528C60.0415 84.4528 60.4723 84.022 60.4723 83.4907C60.4723 82.9593 60.0415 82.5286 59.5102 82.5286Z" fill="#7E317A" stroke="#7E317A" stroke-width="0.5"/>
</svg>
