<svg width="120" height="120" viewBox="0 0 120 120" fill="none" xmlns="http://www.w3.org/2000/svg">
<circle cx="60" cy="60" r="60" fill="white"/>
<path d="M95.5476 39.2952H69.1137V35.5075C69.1119 34.0473 68.5309 32.647 67.4981 31.6147C66.4652 30.5824 65.0655 30.0014 63.6048 30H41.5075C40.0473 30.0014 38.6475 30.5823 37.6147 31.6147C36.5824 32.6475 36.0014 34.0473 36 35.5075V85.4905C36.0014 86.9512 36.5823 88.351 37.6147 89.3838C38.6471 90.4166 40.0473 90.9976 41.5075 90.9995H63.6048C65.0655 90.9976 66.4657 90.4167 67.4985 89.3843C68.5309 88.3515 69.1118 86.9512 69.1137 85.4905V65.4376H95.5476C95.9326 65.4376 96.3024 65.2845 96.5744 65.012C96.8469 64.74 97 64.3702 97 63.9852V40.7465C97 40.3615 96.8469 39.9917 96.5744 39.7197C96.3024 39.4472 95.9326 39.2941 95.5476 39.2941V39.2952ZM63.605 88.0956H41.5077C40.8175 88.0946 40.1559 87.8198 39.6681 87.3316C39.1802 86.8433 38.9059 86.1816 38.905 85.4914V81.7051H66.21V85.4914C66.2091 86.1816 65.9343 86.8437 65.446 87.3316C64.9582 87.8198 64.296 88.0946 63.6058 88.0956H63.605ZM66.2091 78.8003H38.9041V35.5075C38.9051 34.8177 39.1794 34.1561 39.6672 33.6678C40.1555 33.18 40.8171 32.9057 41.5069 32.9047H63.6042C64.2944 32.9057 64.956 33.18 65.4444 33.6678C65.9326 34.1556 66.2074 34.8173 66.2084 35.5075V39.2952H46.7468C46.3618 39.2952 45.992 39.4483 45.72 39.7208C45.4475 39.9929 45.2944 40.3626 45.2944 40.7476V63.9863C45.2944 64.3713 45.4475 64.7411 45.72 65.0131C45.992 65.2856 46.3618 65.4387 46.7468 65.4387H53.4278V72.1197C53.4278 72.7071 53.7814 73.2369 54.3241 73.4614C54.8668 73.6864 55.4916 73.5619 55.907 73.1465L63.6148 65.4387H66.2088L66.2091 78.8003ZM94.0948 62.5339H63.0139C62.6289 62.5339 62.2596 62.687 61.9871 62.9595L56.333 68.6136V63.9863C56.333 63.6013 56.1799 63.2315 55.9074 62.9595C55.6354 62.687 55.2656 62.5339 54.8806 62.5339H48.1996V42.2001H94.0951L94.0948 62.5339Z" fill="black"/>
<path d="M79.8087 55.4164C80.001 55.7503 80.3182 55.9937 80.6903 56.0933C81.0624 56.1929 81.4589 56.1403 81.7922 55.9476L83.6384 54.8816V57.014C83.6384 57.8163 84.2885 58.4664 85.0909 58.4664C85.8932 58.4664 86.5433 57.8163 86.5433 57.014V54.8816L88.3895 55.9476C89.0838 56.3487 89.9718 56.1108 90.373 55.4164C90.7742 54.7221 90.5362 53.8341 89.8419 53.4329L87.9949 52.3664L89.8419 51.2999C90.5362 50.8988 90.7742 50.0108 90.373 49.3164C89.9719 48.622 89.0839 48.3841 88.3895 48.7852L86.5433 49.8512V47.7188C86.5433 46.9165 85.8932 46.2664 85.0909 46.2664C84.2885 46.2664 83.6384 46.9165 83.6384 47.7188V49.8512L81.7922 48.7852C81.0979 48.3841 80.2099 48.622 79.8087 49.3164C79.4075 50.0107 79.6455 50.8987 80.3398 51.2999L82.1868 52.3664L80.3398 53.4329C80.006 53.6256 79.763 53.9428 79.6634 54.3144C79.5638 54.6865 79.616 55.0831 79.8087 55.4164Z" fill="#7E317A"/>
<path d="M65.8653 49.3164C65.6726 49.6497 65.6205 50.0463 65.7201 50.4184C65.8197 50.79 66.0626 51.1072 66.3965 51.2999L68.2435 52.3664L66.3965 53.4329C65.7021 53.834 65.4642 54.722 65.8653 55.4164C66.2664 56.1108 67.1545 56.3487 67.8489 55.9476L69.6951 54.8816V57.014C69.6951 57.8163 70.3452 58.4664 71.1475 58.4664C71.9498 58.4664 72.5999 57.8163 72.5999 57.014V54.8816L74.4461 55.9476C75.1405 56.3487 76.0285 56.1108 76.4297 55.4164C76.8308 54.7221 76.5929 53.8341 75.8985 53.4329L74.0515 52.3664L75.8985 51.2999C76.5929 50.8988 76.8308 50.0108 76.4297 49.3164C76.0285 48.622 75.1405 48.3841 74.4461 48.7852L72.5999 49.8512V47.7188C72.5999 46.9165 71.9498 46.2664 71.1475 46.2664C70.3452 46.2664 69.6951 46.9165 69.6951 47.7188V49.8512L67.8489 48.7852C67.5155 48.592 67.119 48.5394 66.7469 48.639C66.3749 48.7386 66.0576 48.9826 65.8653 49.3164Z" fill="#7E317A"/>
<path d="M62.4872 49.3164C62.295 48.9821 61.9778 48.7386 61.6057 48.6386C61.2336 48.539 60.8371 48.592 60.5037 48.7852L58.6575 49.8512V47.7188C58.6575 46.9165 58.0074 46.2664 57.2051 46.2664C56.4028 46.2664 55.7527 46.9165 55.7527 47.7188V49.8512L53.9065 48.7852C53.2121 48.3841 52.3241 48.622 51.9229 49.3164C51.5218 50.0107 51.7597 50.8987 52.4541 51.2999L54.3011 52.3664L52.4541 53.4329C51.7597 53.834 51.5218 54.722 51.9229 55.4164C52.3241 56.1108 53.2121 56.3487 53.9065 55.9476L55.7527 54.8816V57.014C55.7527 57.8163 56.4028 58.4664 57.2051 58.4664C58.0074 58.4664 58.6575 57.8163 58.6575 57.014V54.8816L60.5037 55.9476C61.1981 56.3487 62.0861 56.1108 62.4873 55.4164C62.8884 54.7221 62.6505 53.8341 61.9561 53.4329L60.1091 52.3664L61.9561 51.2999C62.2899 51.1072 62.5329 50.79 62.6325 50.4183C62.7321 50.0463 62.68 49.6497 62.4872 49.3164Z" fill="#7E317A"/>
<path d="M55.4617 83.4473H49.6521C48.8499 83.4473 48.1997 84.0974 48.1997 84.8997C48.1997 85.702 48.8498 86.3521 49.6521 86.3521H55.4617C56.264 86.3521 56.9141 85.702 56.9141 84.8997C56.9141 84.0974 56.264 83.4473 55.4617 83.4473Z" fill="#7E317A"/>
<path d="M49.6536 37.5525H55.4631C56.2654 37.5525 56.9156 36.9024 56.9156 36.1001C56.9156 35.2978 56.2655 34.6477 55.4631 34.6477H49.6536C48.8513 34.6477 48.2012 35.2978 48.2012 36.1001C48.2012 36.9024 48.8513 37.5525 49.6536 37.5525Z" fill="black"/>
</svg>
