<svg width="22" height="24" viewBox="0 0 22 24" fill="none" xmlns="http://www.w3.org/2000/svg">
<path d="M1.26957 20.1623H8.3201C8.35266 21.7247 9.65845 23 11.2577 23C12.8572 23 14.1628 21.7248 14.1953 20.1623H21.2458C21.4091 20.1623 21.5396 20.0667 21.5723 19.9072C21.6049 19.7798 21.5398 19.6203 21.4091 19.5565C21.3765 19.5565 19.0914 18.3449 18.8305 14.9014V10.852C18.8305 10.3101 18.7652 9.76805 18.6347 9.25786C18.2431 7.75932 16.9373 4.47528 12.9225 3.71001L12.9223 2.59419C12.9223 1.70144 12.2042 1 11.2902 1C10.3762 1 9.65813 1.70144 9.65813 2.59419V3.71024C5.6433 4.44351 4.33753 7.72755 3.9459 9.25808C3.81543 9.76828 3.75008 10.3103 3.75008 10.8523V14.9016C3.48892 18.345 1.23664 19.5247 1.17153 19.5567C1.04107 19.6206 0.975719 19.78 1.00828 19.9075C1.00828 20.0665 1.13874 20.1623 1.26944 20.1623L1.26957 20.1623ZM11.2578 22.3622C10.0174 22.3622 9.00551 21.3738 8.97299 20.1621H13.5427C13.5101 21.3738 12.4983 22.3622 11.2578 22.3622ZM10.2785 2.59417C10.2785 2.05218 10.7029 1.6376 11.2578 1.6376C11.8127 1.6376 12.2371 2.05216 12.2371 2.59417V3.61457C11.9106 3.58277 11.5844 3.55074 11.2578 3.55074C10.9313 3.55074 10.6051 3.58254 10.2785 3.61457V2.59417ZM4.37044 14.9332V10.8519C4.37044 10.3417 4.43578 9.86352 4.56625 9.41714C5.05601 7.47223 6.59019 4.22025 11.2577 4.1882C15.9253 4.22 17.4596 7.47223 17.9492 9.38532C18.0797 9.83168 18.1125 10.3419 18.1125 10.82V14.9012V14.933C18.3083 17.3881 19.418 18.791 20.234 19.5243H2.24864C3.06468 18.8229 4.17443 17.3881 4.37022 14.9332L4.37044 14.9332Z" fill="white" stroke="white" stroke-width="0.4"/>
</svg>
