<svg width="43" height="49" viewBox="0 0 43 49" fill="none" xmlns="http://www.w3.org/2000/svg">
<path d="M38.2222 4.9H28.2367C27.2333 2.058 24.6056 0 21.5 0C18.3944 0 15.7667 2.058 14.7633 4.9H4.77778C2.15 4.9 0 7.105 0 9.8V44.1C0 46.795 2.15 49 4.77778 49H38.2222C40.85 49 43 46.795 43 44.1V9.8C43 7.105 40.85 4.9 38.2222 4.9ZM21.5 4.9C22.8139 4.9 23.8889 6.0025 23.8889 7.35C23.8889 8.6975 22.8139 9.8 21.5 9.8C20.1861 9.8 19.1111 8.6975 19.1111 7.35C19.1111 6.0025 20.1861 4.9 21.5 4.9ZM21.5 14.7C25.4656 14.7 28.6667 17.983 28.6667 22.05C28.6667 26.117 25.4656 29.4 21.5 29.4C17.5344 29.4 14.3333 26.117 14.3333 22.05C14.3333 17.983 17.5344 14.7 21.5 14.7ZM35.8333 44.1H7.16667V40.67C7.16667 35.77 16.7222 33.075 21.5 33.075C26.2778 33.075 35.8333 35.77 35.8333 40.67V44.1Z" fill="#7A2F66"/>
</svg>
