<svg width="15" height="12" viewBox="0 0 15 12" fill="none" xmlns="http://www.w3.org/2000/svg">
<path d="M1.08742 2.5375L4.96742 6.4175L1.08742 10.2975C0.697422 10.6875 0.697422 11.3175 1.08742 11.7075C1.47742 12.0975 2.10742 12.0975 2.49742 11.7075L7.08742 7.1175C7.47742 6.7275 7.47742 6.0975 7.08742 5.7075L2.49742 1.1175C2.10742 0.727501 1.47742 0.727501 1.08742 1.1175C0.707422 1.5075 0.697422 2.1475 1.08742 2.5375Z" fill="#7C5FAA"/>
<path d="M8.08742 2.5375L11.9674 6.4175L8.08742 10.2975C7.69742 10.6875 7.69742 11.3175 8.08742 11.7075C8.47742 12.0975 9.10742 12.0975 9.49742 11.7075L14.0874 7.1175C14.4774 6.7275 14.4774 6.0975 14.0874 5.7075L9.49742 1.1175C9.10742 0.727501 8.47742 0.727501 8.08742 1.1175C7.70742 1.5075 7.69742 2.1475 8.08742 2.5375Z" fill="#7C5FAA"/>
</svg>
