<svg width="144" height="39" viewBox="0 0 144 39" fill="none" xmlns="http://www.w3.org/2000/svg">
<g filter="url(#filter0_d_127_9518)">
<rect x="4" width="136" height="31" rx="15.5" fill="url(#paint0_linear_127_9518)"/>
<rect x="4.5" y="0.5" width="135" height="30" rx="15" stroke="#BABEC4" stroke-opacity="0.5"/>
</g>
<path d="M58.354 20.14C57.5887 20.14 56.856 20.0327 56.156 19.818C55.456 19.594 54.9007 19.3093 54.49 18.964L55.12 17.55C55.512 17.858 55.9973 18.1147 56.576 18.32C57.1547 18.5253 57.7473 18.628 58.354 18.628C58.8673 18.628 59.2827 18.572 59.6 18.46C59.9173 18.348 60.1507 18.1987 60.3 18.012C60.4493 17.816 60.524 17.5967 60.524 17.354C60.524 17.0553 60.4167 16.8173 60.202 16.64C59.9873 16.4533 59.7073 16.3087 59.362 16.206C59.026 16.094 58.648 15.9913 58.228 15.898C57.8173 15.8047 57.402 15.6973 56.982 15.576C56.5713 15.4453 56.1933 15.282 55.848 15.086C55.512 14.8807 55.2367 14.61 55.022 14.274C54.8073 13.938 54.7 13.5087 54.7 12.986C54.7 12.454 54.84 11.9687 55.12 11.53C55.4093 11.082 55.8433 10.7273 56.422 10.466C57.01 10.1953 57.752 10.06 58.648 10.06C59.236 10.06 59.8193 10.1347 60.398 10.284C60.9767 10.4333 61.4807 10.648 61.91 10.928L61.336 12.342C60.8973 12.0807 60.4447 11.8893 59.978 11.768C59.5113 11.6373 59.0633 11.572 58.634 11.572C58.13 11.572 57.7193 11.6327 57.402 11.754C57.094 11.8753 56.8653 12.034 56.716 12.23C56.576 12.426 56.506 12.65 56.506 12.902C56.506 13.2007 56.6087 13.4433 56.814 13.63C57.0287 13.8073 57.304 13.9473 57.64 14.05C57.9853 14.1527 58.368 14.2553 58.788 14.358C59.208 14.4513 59.6233 14.5587 60.034 14.68C60.454 14.8013 60.832 14.96 61.168 15.156C61.5133 15.352 61.7887 15.618 61.994 15.954C62.2087 16.29 62.316 16.7147 62.316 17.228C62.316 17.7507 62.1713 18.236 61.882 18.684C61.602 19.1227 61.168 19.4773 60.58 19.748C59.992 20.0093 59.25 20.14 58.354 20.14ZM69.2587 20V18.488L69.1607 18.166V15.52C69.1607 15.0067 69.0067 14.61 68.6987 14.33C68.3907 14.0407 67.924 13.896 67.2987 13.896C66.8787 13.896 66.4634 13.9613 66.0527 14.092C65.6514 14.2227 65.3107 14.4047 65.0307 14.638L64.3447 13.364C64.746 13.056 65.222 12.8273 65.7727 12.678C66.3327 12.5193 66.9114 12.44 67.5087 12.44C68.5914 12.44 69.4267 12.7013 70.0147 13.224C70.612 13.7373 70.9107 14.5353 70.9107 15.618V20H69.2587ZM66.9067 20.098C66.3467 20.098 65.8567 20.0047 65.4367 19.818C65.0167 19.622 64.69 19.356 64.4567 19.02C64.2327 18.6747 64.1207 18.2873 64.1207 17.858C64.1207 17.438 64.2187 17.06 64.4147 16.724C64.62 16.388 64.9514 16.122 65.4087 15.926C65.866 15.73 66.4727 15.632 67.2287 15.632H69.3987V16.794H67.3547C66.7574 16.794 66.356 16.892 66.1507 17.088C65.9454 17.2747 65.8427 17.508 65.8427 17.788C65.8427 18.1053 65.9687 18.3573 66.2207 18.544C66.4727 18.7307 66.8227 18.824 67.2707 18.824C67.7 18.824 68.0827 18.726 68.4187 18.53C68.764 18.334 69.0114 18.0447 69.1607 17.662L69.4547 18.712C69.2867 19.1507 68.9834 19.4913 68.5447 19.734C68.1154 19.9767 67.5694 20.098 66.9067 20.098ZM75.7079 20L72.5019 12.524H74.3219L77.0799 19.118H76.1839L79.0399 12.524H80.7199L77.5139 20H75.7079ZM85.8225 20.098C84.9919 20.098 84.2639 19.9347 83.6385 19.608C83.0225 19.272 82.5419 18.8147 82.1965 18.236C81.8605 17.6573 81.6925 16.9993 81.6925 16.262C81.6925 15.5153 81.8559 14.8573 82.1825 14.288C82.5185 13.7093 82.9759 13.2567 83.5545 12.93C84.1425 12.6033 84.8099 12.44 85.5565 12.44C86.2845 12.44 86.9332 12.5987 87.5025 12.916C88.0719 13.2333 88.5199 13.6813 88.8465 14.26C89.1732 14.8387 89.3365 15.52 89.3365 16.304C89.3365 16.3787 89.3319 16.4627 89.3225 16.556C89.3225 16.6493 89.3179 16.738 89.3085 16.822H83.0785V15.66H88.3845L87.6985 16.024C87.7079 15.5947 87.6192 15.2167 87.4325 14.89C87.2459 14.5633 86.9892 14.3067 86.6625 14.12C86.3452 13.9333 85.9765 13.84 85.5565 13.84C85.1272 13.84 84.7492 13.9333 84.4225 14.12C84.1052 14.3067 83.8532 14.568 83.6665 14.904C83.4892 15.2307 83.4005 15.618 83.4005 16.066V16.346C83.4005 16.794 83.5032 17.1907 83.7085 17.536C83.9139 17.8813 84.2032 18.1473 84.5765 18.334C84.9499 18.5207 85.3792 18.614 85.8645 18.614C86.2845 18.614 86.6625 18.5487 86.9985 18.418C87.3345 18.2873 87.6332 18.082 87.8945 17.802L88.8325 18.88C88.4965 19.272 88.0719 19.5753 87.5585 19.79C87.0545 19.9953 86.4759 20.098 85.8225 20.098Z" fill="white"/>
<defs>
<filter id="filter0_d_127_9518" x="0" y="0" width="144" height="39" filterUnits="userSpaceOnUse" color-interpolation-filters="sRGB">
<feFlood flood-opacity="0" result="BackgroundImageFix"/>
<feColorMatrix in="SourceAlpha" type="matrix" values="0 0 0 0 0 0 0 0 0 0 0 0 0 0 0 0 0 0 127 0" result="hardAlpha"/>
<feOffset dy="4"/>
<feGaussianBlur stdDeviation="2"/>
<feColorMatrix type="matrix" values="0 0 0 0 0.725 0 0 0 0 0.637396 0 0 0 0 0.637396 0 0 0 0.25 0"/>
<feBlend mode="normal" in2="BackgroundImageFix" result="effect1_dropShadow_127_9518"/>
<feBlend mode="normal" in="SourceGraphic" in2="effect1_dropShadow_127_9518" result="shape"/>
</filter>
<linearGradient id="paint0_linear_127_9518" x1="72" y1="0" x2="72" y2="31" gradientUnits="userSpaceOnUse">
<stop stop-color="#7E317A"/>
<stop offset="1" stop-color="#8F2960"/>
</linearGradient>
</defs>
</svg>
